<svg width="59" height="25" viewBox="0 0 59 25" fill="none" xmlns="http://www.w3.org/2000/svg">
<path d="M6.67195 2.30673H10.5546V12.8614C10.5546 13.9919 10.3315 14.944 9.8852 15.7176C9.45379 16.4911 8.83643 17.0787 8.03312 17.4804C7.24469 17.8821 6.3298 18.0829 5.28847 18.0829C3.90499 18.0829 2.74465 17.7482 1.80745 17.0787C0.885131 16.3944 0.282647 15.3977 0 14.0886L3.54796 13.3969C3.60747 13.7093 3.7116 13.9771 3.86036 14.2002C4.024 14.4085 4.21739 14.5647 4.44053 14.6688C4.66367 14.7729 4.90169 14.825 5.15459 14.825C5.45211 14.825 5.71244 14.7581 5.93558 14.6242C6.1736 14.4903 6.35212 14.2895 6.47113 14.0217C6.60501 13.7539 6.67195 13.4341 6.67195 13.0622V2.30673Z" fill="black"/>
<path d="M19.2019 17.9267L18.9565 16.5432C18.5548 17.0044 18.1383 17.3763 17.7069 17.6589C17.2903 17.9416 16.725 18.0829 16.011 18.0829C15.3564 18.0829 14.7539 17.9639 14.2035 17.7259C13.668 17.473 13.2366 17.1085 12.9093 16.6325C12.582 16.1564 12.4184 15.5763 12.4184 14.892C12.4184 13.9696 12.7457 13.211 13.4002 12.6159C14.0548 12.0209 15.0887 11.6415 16.5019 11.4779L18.9565 11.2101V10.563C18.9565 10.3547 18.8523 10.1465 18.6441 9.9382C18.4358 9.71506 18.116 9.60348 17.6845 9.60348C17.2978 9.60348 16.9631 9.70762 16.6804 9.91588C16.3978 10.1241 16.2044 10.4142 16.1002 10.7861L12.9986 9.67043C13.3407 8.65885 13.9209 7.90017 14.7391 7.39438C15.5573 6.87371 16.5837 6.61338 17.8184 6.61338C19.3804 6.61338 20.5705 7.00016 21.3887 7.77372C22.2069 8.54728 22.616 9.61092 22.616 10.9647V17.9267H19.2019ZM18.9565 13.263L17.2159 13.4638C16.8738 13.5085 16.6135 13.62 16.4349 13.7986C16.2564 13.9771 16.1672 14.1928 16.1672 14.4457C16.1672 14.6986 16.2713 14.9068 16.4796 15.0705C16.7027 15.2341 17.0077 15.3159 17.3945 15.3159C17.7069 15.3159 17.9746 15.249 18.1978 15.1151C18.4358 14.9663 18.6217 14.7581 18.7556 14.4903C18.8895 14.2225 18.9565 13.8878 18.9565 13.4862V13.263Z" fill="black"/>
<path d="M32.417 6.76958H36.4335L29.7839 22.3895H26.0128L28.3335 17.3019L23.8706 6.76958H27.9765L30.2079 12.7721L32.417 6.76958Z" fill="black"/>
<path d="M37.9485 2.30673H41.8312V8.3762H42.9245L47.7221 2.30673H52.3188L46.294 9.96051L52.5643 17.9267H47.7444L42.9469 11.6341H41.8312V17.9267H37.9485V2.30673Z" fill="black"/>
<path d="M55.9733 18.1052C55.2741 18.1052 54.7088 17.9044 54.2774 17.5027C53.8609 17.0862 53.6526 16.5878 53.6526 16.0077C53.6526 15.4126 53.8609 14.9143 54.2774 14.5126C54.7088 14.0961 55.2741 13.8878 55.9733 13.8878C56.6725 13.8878 57.2303 14.0961 57.6469 14.5126C58.0783 14.9143 58.294 15.4126 58.294 16.0077C58.294 16.5878 58.0783 17.0862 57.6469 17.5027C57.2303 17.9044 56.6725 18.1052 55.9733 18.1052Z" fill="#D71243"/>
</svg>
